<svg xmlns="http://www.w3.org/2000/svg" viewBox="0 0 352 352">
 <path fill="#ee4712" d="m176,0C78.8,0,0,78.8,0,176s78.8,176,176,176,176-78.8,176-176S273.2,0,176,0Zm-56.17,303.79c-11.55-43.69,8.02-90.63,48.65-112.71,11.58,43.79-8.12,90.69-48.65,112.71ZM234.39,49.08c9.72,42.89-10.1,88.03-49.74,109.42-9.69-42.78,10-87.96,49.74-109.42ZM50.36,119.34c42.51-9.63,87.24,9.76,108.85,48.71-42.51,9.63-87.24-9.76-108.85-48.71Zm254.4,114.06c-43.92,10.5-90.63-10.12-111.75-51.74,43.92-10.51,90.63,10.12,111.75,51.74Zm27.24-57.4c0,17.45-2.86,34.47-8.33,50.51-20.23-41.92-61.81-66.73-105.47-67.54,32.33-29.71,46.19-75.58,34.56-118.86,12.13,6.88,23.41,15.45,33.54,25.58,29.46,29.46,45.69,68.64,45.69,110.31ZM65.69,65.69c29.46-29.46,68.64-45.69,110.31-45.69,18.43,0,36.37,3.18,53.2,9.27-42.62,20.84-67.38,63.81-66.99,108.45-30.22-34.57-78.45-49.21-123.45-36.01,7.1-13.08,16.12-25.2,26.94-36.02Zm-45.69,110.31c0-18.59,3.24-36.69,9.44-53.65,20.07,42.17,61.79,67.31,105.72,68.13-33.37,30.67-46.96,78.47-33.42,122.78-13.09-7.1-25.23-16.13-36.05-26.96-29.46-29.46-45.69-68.64-45.69-110.31Zm266.31,110.31c-29.46,29.46-68.64,45.69-110.31,45.69-17.57,0-34.69-2.9-50.83-8.44,42.28-20.85,66.99-63.67,66.6-108.25,29.61,33.86,76.42,48.51,120.45,36.83-6.94,12.37-15.62,23.86-25.92,34.16Z"/>
</svg>
