<?xml version="1.0" encoding="UTF-8"?>
<svg id="Layer_1" data-name="Layer 1" xmlns="http://www.w3.org/2000/svg" viewBox="0 0 176 176">
  <defs>
    <style>
      .cls-1 {
        fill: #ee4712;
      }
    </style>
  </defs>
  <path class="cls-1" d="m88,0C39.4,0,0,39.4,0,88s39.4,88,88,88,88-39.4,88-88S136.6,0,88,0Zm-28.08,151.9c-5.78-21.85,4.01-45.32,24.33-56.35,5.79,21.9-4.06,45.35-24.33,56.35ZM117.19,24.54c4.86,21.44-5.05,44.01-24.87,54.71-4.85-21.39,5-43.98,24.87-54.71ZM25.18,59.67c21.25-4.81,43.62,4.88,54.42,24.35-21.25,4.82-43.62-4.88-54.42-24.35Zm127.2,57.03c-21.96,5.25-45.32-5.06-55.88-25.87,21.96-5.25,45.32,5.06,55.88,25.87Zm13.62-28.7c0,8.72-1.43,17.24-4.16,25.25-10.12-20.96-30.9-33.36-52.74-33.77,16.17-14.85,23.1-37.79,17.28-59.43,6.07,3.44,11.71,7.73,16.77,12.79,14.73,14.73,22.85,34.32,22.85,55.15h0ZM32.85,32.85c14.73-14.73,34.32-22.84,55.15-22.84,9.21,0,18.18,1.59,26.6,4.64-21.31,10.42-33.69,31.9-33.5,54.22-15.11-17.28-39.22-24.6-61.72-18,3.55-6.54,8.06-12.6,13.47-18.01h0Zm-22.84,55.15c0-9.29,1.62-18.35,4.72-26.83,10.03,21.08,30.9,33.66,52.86,34.06-16.68,15.33-23.48,39.24-16.71,61.39-6.54-3.55-12.61-8.07-18.03-13.48-14.73-14.73-22.84-34.32-22.84-55.15h0Zm133.15,55.16c-14.73,14.73-34.32,22.85-55.15,22.85-8.79,0-17.35-1.45-25.42-4.22,21.14-10.43,33.5-31.83,33.3-54.12,14.81,16.93,38.21,24.26,60.22,18.42-3.47,6.19-7.81,11.93-12.96,17.08h0Z"/>
</svg>